<?xml version="1.0" encoding="UTF-8" standalone="no"?> <!-- Created with Vectornator for iOS (http://vectornator.io/) --><!DOCTYPE svg PUBLIC "-//W3C//DTD SVG 1.1//EN" "http://www.w3.org/Graphics/SVG/1.1/DTD/svg11.dtd">
<svg height="100%" style="fill-rule:nonzero;clip-rule:evenodd;stroke-linecap:round;stroke-linejoin:round;" xmlns:xlink="http://www.w3.org/1999/xlink" xmlns="http://www.w3.org/2000/svg" xml:space="preserve" width="100%" xmlns:vectornator="http://vectornator.io" version="1.1" viewBox="0 0 1410 280">
<metadata>
<vectornator:setting key="DimensionsVisible" value="0"/>
<vectornator:setting key="PencilOnly" value="1"/>
<vectornator:setting key="SnapToPoints" value="0"/>
<vectornator:setting key="OutlineMode" value="0"/>
<vectornator:setting key="CMYKEnabledKey" value="0"/>
<vectornator:setting key="RulersVisible" value="1"/>
<vectornator:setting key="SnapToEdges" value="0"/>
<vectornator:setting key="GuidesVisible" value="0"/>
<vectornator:setting key="DisplayWhiteBackground" value="0"/>
<vectornator:setting key="doHistoryDisabled" value="0"/>
<vectornator:setting key="SnapToGuides" value="1"/>
<vectornator:setting key="TimeLapseWatermarkDisabled" value="0"/>
<vectornator:setting key="Units" value="Points"/>
<vectornator:setting key="DynamicGuides" value="1"/>
<vectornator:setting key="IsolateActiveLayer" value="0"/>
<vectornator:setting key="SnapToGrid" value="0"/>
</metadata>
<defs/>
<g id="Untitled" vectornator:layerName="Untitled">
<path d="M344+206C343.95+209.59+343.81+213.86+341.44+216.78C337.44+221.7+328.4+221.64+325.17+215.89C323.79+213.43+324+209.77+324+207L324+92C324.07+78.19+330.74+73.02+344+73C369.35+72.96+410.61+67.83+420.23+99C421.76+103.97+421.99+107.88+422+113C422.01+118.29+422.22+121.74+420.96+127C417.35+142.1+404.8+152.62+390+156L404.14+181L413.45+197C415.9+201.13+421.81+209.35+421.79+213.98C421.74+222.25+410.16+222.15+403.04+215.79C399.19+212.34+396.82+207.41+394.2+203L377.8+174C370.85+162.35+371.16+159.02+360+159L344+159L344+206ZM344+107L344+142C358.86+142+379.11+144.41+392+136.65C405.37+128.59+406.77+103.91+393.98+94.8C381.15+85.66+357.72+92.61+345+89L344+107ZM1348+81.04L1371+87.8C1378.29+89.25+1389.86+88.55+1393.83+96.04C1396.49+101.06+1394.02+106.43+1391.75+111L1380.87+132C1377.36+140.03+1375.12+150.84+1364+149.89C1357.74+149.36+1353.71+145.12+1349+141.5C1339.31+134.04+1327.06+126.33+1315.01+133.99C1312.44+135.63+1309.95+138.26+1308.58+141C1304.78+148.62+1312.31+153.72+1319+154.86C1333.5+157.32+1347.68+157.83+1360+166.93C1378.78+180.79+1371.8+203.51+1354+214.53C1348.6+217.88+1339.26+221.4+1333+222.54C1319.85+224.93+1299.19+224.34+1287+218.65C1280.98+215.84+1276.93+209.52+1284.06+205.09C1288.21+202.5+1294.26+203.01+1299+203C1305.26+202.99+1314.31+202.66+1317.14+195.96C1318.27+193.85+1318.13+192.08+1317.14+190.1C1313.89+184.95+1302.62+182.53+1297+181.4C1284.59+178.9+1269.65+175.47+1260.01+166.82C1248.13+156.14+1247.83+144.63+1248+130C1248.15+117.35+1255.65+103.68+1265.04+95.44C1279.71+82.56+1293.58+80.05+1312+77.42C1321.81+76.23+1338.51+78.22+1348+81.04ZM1185+80.77L1210+88.08C1217.65+89.42+1229.49+88.75+1232.35+98.01C1234.78+105.93+1223.95+120.72+1220.49+128C1217.32+134.67+1215.48+144.12+1208.98+148.17C1204.97+150.82+1200.05+150.2+1196+148.17C1185.94+142.83+1169.06+122.15+1152.02+134.64C1149.18+136.71+1145.93+140.37+1145.5+144C1144.27+154.36+1159.22+155.17+1166+156.39L1179+158.5C1192.81+161.77+1207.91+170.21+1208.91+186C1210.18+206.28+1188.57+219.34+1171+222.54C1161.6+224.25+1154.39+224.11+1145+223.17C1137.82+222.45+1125.54+221.34+1120.43+215.66C1116.64+211.46+1117.73+206.31+1123.02+204.15C1127.47+202.33+1134.6+203.3+1139.59+203.19C1145.32+203.06+1153.63+201.43+1155.31+194.99C1155.85+192.92+1155.55+191.06+1154.26+189.34C1150.7+184.59+1137.78+181.96+1132+180.92C1121.01+178.93+1106.24+174.57+1098+166.91C1085.48+155.26+1085.82+145.66+1086+130C1086.14+118.02+1092.38+105.33+1101.04+97.17C1116.48+82.61+1130.13+80.26+1150+77.42C1159.28+76.29+1176.04+78.08+1185+80.77ZM1011+207C1023.72+206.85+1028.27+201.98+1033+201.49C1036.3+201.16+1039.28+203.05+1040.64+206.04C1043.07+211.34+1038.42+215.59+1034+217.53C1023.48+222.16+1016.28+223.02+1005+223C997.5+222.99+994.06+222.29+987+219.57C965.12+211.15+954.03+189.6+954+167C953.99+157.9+954.55+155.72+956.85+147C962.33+126.29+979.51+108.27+1002+108L1006+108C1027.55+108.26+1041.03+121.81+1046.11+142C1048.12+150.03+1049.7+159.18+1042.79+165.47C1038.13+169.72+1032.09+170.92+1026+171L974+171C976.91+192.92+987.48+207.26+1011+207ZM1027.12+138C1022.16+126.75+1014.47+123.87+1003+124C1000.03+124.04+997.85+124.09+995+125.13C988.88+127.37+982.86+132.66+979.22+138C977.04+141.2+971.66+152.84+975.6+155.98C977.17+157.23+981.02+157+983+157L1021+157C1025.99+156.98+1026.16+156.87+1031+156C1030.14+149.45+1029.85+144.17+1027.12+138ZM926+77L926+96L926+191C925.99+194.67+924.95+200.99+926.78+203.91C929.67+208.55+935.97+208.95+934.85+217C933.99+223.19+929.02+223.12+924+222.98C911.68+222.65+906.14+213.38+906+202L906+99L906+74C906.01+66.9+905.77+63.75+913+60.65C924.37+58.66+925.99+68.27+926+77ZM782.89+214.98C781.87+212.43+782+208.75+782+206L782+180L782+77C782.01+72.33+781.79+66.95+785.3+63.34C791.57+56.9+801.82+60.49+802+73L802+110C801.94+114.58+801.24+116.33+802+121C814.77+113.02+821.17+107.82+837+108C858.17+108.25+871.83+123.36+876.35+143C878.05+150.39+878.99+153.3+879+161C879.04+184.54+871.53+209.66+848+219.84C842.49+222.23+840.02+222.93+834+223C816.82+223.2+813.81+219.72+800+211C795.24+224.26+785.46+221.44+782.89+214.98ZM803.02+139.01C801.81+141.38+802.01+144.4+802+147L802+188C802+190.5+801.8+193.67+803.02+195.91C807.89+204.85+825.79+207.77+835+205.71C851.75+201.97+857.98+182.07+858+167L858+158C857.93+142.34+851.03+125.22+833+125.19L824+125.19C817.99+127.04+805.89+133.43+803.02+139.01ZM744.96+66.74C754.58+73.05+751.39+85.99+741+89.2C726.43+93.7+716.06+72.51+732+65.65C736.09+64.8+741.29+64.33+744.96+66.74ZM747+124L747+206C746.99+209.41+747.26+212.97+745.26+215.94C741.66+221.3+733.79+222.03+729.72+216.78C726.98+213.23+727.01+207.28+727+203L727+128C727.03+121.45+727.03+115.61+733.09+111.85C743.13+109.03+746.88+114.73+747+124ZM671.32+135C670+132.43+668.27+130.37+665.96+128.64C650.99+117.43+632.48+131.13+625+132.61C618.75+133.84+614.35+129.27+615.47+124C616.9+117.33+630.03+112.8+636+111.15L647+108.32C663.42+105.64+682.18+110.88+689.48+127C695.07+139.32+694+149.05+694+162L694+208C693.99+210.8+694.22+214.32+692.69+216.78C689.68+221.59+681.96+221.1+678.74+216.78C676.83+214.23+677.03+211.01+677+208C665.7+215.53+656.17+222.83+642+223C633.48+223.1+627.22+222.55+620+217.37C606.47+207.63+603.72+186.3+613.71+173C621.34+162.85+638.76+156.41+651+154.09L675+150C673.57+145.03+673.74+139.71+671.32+135ZM650+168.52C645.41+170.01+639.9+171.97+636+174.79C624.34+183.2+624.34+199.04+634.04+204.59C643.56+210.03+656.39+206.56+665+201.19C667.9+199.37+671.38+197.11+672.98+193.99C674.19+191.62+673.99+188.6+674+186L674+164C665.55+165.52+658.42+165.77+650+168.52ZM578+76L578+192C578+195.4+577.24+201.1+578.97+203.94C581.36+207.86+586.41+208.78+587.53+214C589.67+224.03+576.11+224.12+570+221.87C560.3+218.3+558.02+209.31+558+200L558+102L558+78C558+69.69+556.31+64.7+565+60.7C575.82+58.6+577.99+67.46+578+76ZM463.4+189C470.31+202.18+481.77+207.16+496+207C507.88+206.86+512.31+202.24+517+201.57C520+201.14+523.28+202.54+524.82+205.21C527.93+210.57+523.55+215.1+519+217.31C508.89+222.21+499.97+223.05+489+223C429.94+222.72+421.48+131.65+471+111.47C478.11+108.58+483.44+107.92+491+108C516.14+108.3+533.23+130.81+531.96+155C531.28+167.92+519.73+170.98+509+171L478+171C471.38+171+464.46+170.43+458+172C459.87+177.64+460.61+183.67+463.4+189ZM461.17+143C457.62+150.63+455.41+156.85+466+157L505+157C507.46+157+512.34+157.37+514.21+155.26C515.29+153.63+514.68+150.87+514.21+149C513.64+143.4+513.03+138.86+509.75+134.01C503.26+124.4+493.65+123.15+483+124.33C473.14+126.7+465.42+133.89+461.17+143ZM127+20.21C141.35+20.02+158.15+24.44+171+30.76C185.05+37.66+198.28+46.28+208.83+58C248.53+102.09+250.91+168.19+214.58+215C205.36+226.88+193.22+237.43+180+244.69C154.7+258.59+139.13+260.33+111+260C83.8+259.68+51.6+243.32+33.04+224C23.25+213.81+13.8+199.11+8.45+186C0.14+165.65-0.03+154.3+0+133C0.02+117.58+4.9+100.73+11.75+87C30.94+48.53+62.97+26.77+105+20.21L127+20.21Z" opacity="1" fill="#ffc70d"/>
</g>
</svg>
